<svg xmlns="http://www.w3.org/2000/svg" viewBox="0 0 32 32" shape-rendering="crispEdges" width="512" height="512"><rect width="100%" height="100%" fill="#B8B8F8"/><rect width="2" height="1" x="15" y="9" fill="#000000"/><rect width="1" height="1" x="14" y="10" fill="#000000"/><rect width="2" height="1" x="15" y="10" fill="#F8B8F8"/><rect width="1" height="1" x="17" y="10" fill="#000000"/><rect width="2" height="1" x="15" y="11" fill="#000000"/><rect width="10" height="1" x="11" y="12" fill="#000000"/><rect width="1" height="1" x="10" y="13" fill="#000000"/><rect width="10" height="1" x="11" y="13" fill="#E45C10"/><rect width="1" height="1" x="21" y="13" fill="#000000"/><rect width="1" height="1" x="10" y="14" fill="#000000"/><rect width="2" height="1" x="11" y="14" fill="#E45C10"/><rect width="2" height="1" x="13" y="14" fill="#000000"/><rect width="2" height="1" x="15" y="14" fill="#E45C10"/><rect width="2" height="1" x="17" y="14" fill="#000000"/><rect width="2" height="1" x="19" y="14" fill="#E45C10"/><rect width="1" height="1" x="21" y="14" fill="#000000"/><rect width="1" height="1" x="10" y="15" fill="#000000"/><rect width="1" height="1" x="11" y="15" fill="#E45C10"/><rect width="1" height="1" x="12" y="15" fill="#000000"/><rect width="2" height="1" x="13" y="15" fill="#f7eecb"/><rect width="2" height="1" x="15" y="15" fill="#000000"/><rect width="2" height="1" x="17" y="15" fill="#f7eecb"/><rect width="1" height="1" x="19" y="15" fill="#000000"/><rect width="1" height="1" x="20" y="15" fill="#E45C10"/><rect width="1" height="1" x="21" y="15" fill="#000000"/><rect width="1" height="1" x="10" y="16" fill="#000000"/><rect width="1" height="1" x="11" y="16" fill="#E45C10"/><rect width="1" height="1" x="12" y="16" fill="#000000"/><rect width="2" height="1" x="13" y="16" fill="#f7eecb"/><rect width="2" height="1" x="15" y="16" fill="#000000"/><rect width="2" height="1" x="17" y="16" fill="#f7eecb"/><rect width="1" height="1" x="19" y="16" fill="#000000"/><rect width="1" height="1" x="20" y="16" fill="#E45C10"/><rect width="1" height="1" x="21" y="16" fill="#000000"/><rect width="1" height="1" x="10" y="17" fill="#000000"/><rect width="2" height="1" x="11" y="17" fill="#E45C10"/><rect width="2" height="1" x="13" y="17" fill="#000000"/><rect width="2" height="1" x="15" y="17" fill="#E45C10"/><rect width="2" height="1" x="17" y="17" fill="#000000"/><rect width="2" height="1" x="19" y="17" fill="#E45C10"/><rect width="1" height="1" x="21" y="17" fill="#000000"/><rect width="1" height="1" x="10" y="18" fill="#000000"/><rect width="10" height="1" x="11" y="18" fill="#E45C10"/><rect width="1" height="1" x="21" y="18" fill="#000000"/><rect width="1" height="1" x="10" y="19" fill="#000000"/><rect width="3" height="1" x="11" y="19" fill="#E45C10"/><rect width="4" height="1" x="14" y="19" fill="#000000"/><rect width="3" height="1" x="18" y="19" fill="#E45C10"/><rect width="1" height="1" x="21" y="19" fill="#000000"/><rect width="1" height="1" x="11" y="20" fill="#000000"/><rect width="8" height="1" x="12" y="20" fill="#E45C10"/><rect width="1" height="1" x="20" y="20" fill="#000000"/><rect width="8" height="1" x="12" y="21" fill="#000000"/><rect width="3" height="1" x="10" y="22" fill="#000000"/><rect width="6" height="1" x="13" y="22" fill="#E45C10"/><rect width="3" height="1" x="19" y="22" fill="#000000"/><rect width="1" height="1" x="9" y="23" fill="#000000"/><rect width="2" height="1" x="10" y="23" fill="#F8B8F8"/><rect width="1" height="1" x="12" y="23" fill="#000000"/><rect width="2" height="1" x="13" y="23" fill="#E45C10"/><rect width="2" height="1" x="15" y="23" fill="#F8B8F8"/><rect width="2" height="1" x="17" y="23" fill="#E45C10"/><rect width="1" height="1" x="19" y="23" fill="#000000"/><rect width="2" height="1" x="20" y="23" fill="#F8B8F8"/><rect width="1" height="1" x="22" y="23" fill="#000000"/><rect width="4" height="1" x="9" y="24" fill="#000000"/><rect width="6" height="1" x="13" y="24" fill="#E45C10"/><rect width="4" height="1" x="19" y="24" fill="#000000"/><rect width="2" height="1" x="8" y="25" fill="#000000"/><rect width="8" height="1" x="12" y="25" fill="#000000"/><rect width="2" height="1" x="22" y="25" fill="#000000"/><rect width="1" height="1" x="8" y="26" fill="#000000"/><rect width="1" height="1" x="10" y="26" fill="#000000"/><rect width="1" height="1" x="12" y="26" fill="#000000"/><rect width="1" height="1" x="13" y="26" fill="#E45C10"/><rect width="1" height="1" x="14" y="26" fill="#000000"/><rect width="1" height="1" x="17" y="26" fill="#000000"/><rect width="1" height="1" x="18" y="26" fill="#E45C10"/><rect width="1" height="1" x="19" y="26" fill="#000000"/><rect width="1" height="1" x="21" y="26" fill="#000000"/><rect width="1" height="1" x="23" y="26" fill="#000000"/><rect width="4" height="1" x="11" y="27" fill="#000000"/><rect width="4" height="1" x="17" y="27" fill="#000000"/><rect width="1" height="1" x="11" y="28" fill="#000000"/><rect width="2" height="1" x="12" y="28" fill="#E45C10"/><rect width="1" height="1" x="14" y="28" fill="#000000"/><rect width="1" height="1" x="17" y="28" fill="#000000"/><rect width="2" height="1" x="18" y="28" fill="#E45C10"/><rect width="1" height="1" x="20" y="28" fill="#000000"/><rect width="4" height="1" x="11" y="29" fill="#000000"/><rect width="4" height="1" x="17" y="29" fill="#000000"/><rect width="6" height="1" x="13" y="5" fill="#f8b800"/><rect width="1" height="1" x="12" y="6" fill="#f8b800"/><rect width="1" height="1" x="19" y="6" fill="#f8b800"/><rect width="6" height="1" x="13" y="7" fill="#f8b800"/></svg>