<svg xmlns="http://www.w3.org/2000/svg" xmlns:xlink="http://www.w3.org/1999/xlink" version="1.1" width="256"
	height="256" viewBox="0 0 256 256" xml:space="preserve">
	<g style="stroke: none; stroke-width: 0; stroke-dasharray: none; stroke-linecap: butt; stroke-linejoin: miter; stroke-miterlimit: 10; fill: none; fill-rule: nonzero; opacity: 1;"
		transform="translate(1.4065934065934016 1.4065934065934016) scale(2.81 2.81)">
		<path
			d="M 53.688 59.07 c -1.389 0 -2.777 -0.357 -4.016 -1.072 L 32.197 47.908 c -2.477 -1.431 -4.016 -4.095 -4.016 -6.955 V 20.775 c 0 -2.86 1.539 -5.525 4.016 -6.955 L 49.672 3.73 c 2.478 -1.431 5.555 -1.43 8.03 0 L 75.177 13.82 c 2.477 1.43 4.016 4.095 4.016 6.955 v 20.178 c 0 2.86 -1.539 5.526 -4.016 6.955 L 57.702 57.997 C 56.464 58.712 55.075 59.07 53.688 59.07 z M 53.687 4.657 c -1.042 0 -2.085 0.269 -3.015 0.806 L 33.197 15.552 c -1.86 1.074 -3.016 3.075 -3.016 5.223 v 20.178 c 0 2.148 1.156 4.149 3.016 5.223 l 17.475 10.089 c 1.858 1.074 4.17 1.074 6.03 0 l 17.475 -10.089 c 1.86 -1.073 3.016 -3.075 3.016 -5.223 V 20.775 c 0 -2.148 -1.155 -4.15 -3.016 -5.223 L 56.702 5.463 C 55.773 4.926 54.73 4.657 53.687 4.657 z"
			style="stroke: none; stroke-width: 1; stroke-dasharray: none; stroke-linecap: butt; stroke-linejoin: miter; stroke-miterlimit: 10; fill: rgb(0,0,0); fill-rule: nonzero; opacity: 1;"
			transform=" matrix(1 0 0 1 0 0) " stroke-linecap="round" />
		<path
			d="M 43.989 38.118 c -0.339 0 -0.664 -0.173 -0.85 -0.473 l -5.914 -9.528 v 9.001 c 0 0.552 -0.448 1 -1 1 c -0.552 0 -1 -0.448 -1 -1 V 24.61 c 0 -0.447 0.296 -0.839 0.726 -0.962 c 0.431 -0.122 0.888 0.055 1.124 0.435 l 5.914 9.528 V 24.61 c 0 -0.552 0.448 -1 1 -1 c 0.552 0 1 0.448 1 1 v 12.508 c 0 0.447 -0.296 0.839 -0.726 0.962 C 44.172 38.106 44.08 38.118 43.989 38.118 z"
			style="stroke: none; stroke-width: 1; stroke-dasharray: none; stroke-linecap: butt; stroke-linejoin: miter; stroke-miterlimit: 10; fill: rgb(0,0,0); fill-rule: nonzero; opacity: 1;"
			transform=" matrix(1 0 0 1 0 0) " stroke-linecap="round" />
		<path
			d="M 51.749 38.118 c -0.553 0 -1 -0.448 -1 -1 V 24.61 c 0 -0.552 0.447 -1 1 -1 h 5.545 c 0.553 0 1 0.448 1 1 s -0.447 1 -1 1 h -4.545 v 11.508 C 52.749 37.67 52.302 38.118 51.749 38.118 z"
			style="stroke: none; stroke-width: 1; stroke-dasharray: none; stroke-linecap: butt; stroke-linejoin: miter; stroke-miterlimit: 10; fill: rgb(0,0,0); fill-rule: nonzero; opacity: 1;"
			transform=" matrix(1 0 0 1 0 0) " stroke-linecap="round" />
		<path
			d="M 56.158 31.864 h -4.409 c -0.553 0 -1 -0.448 -1 -1 s 0.447 -1 1 -1 h 4.409 c 0.553 0 1 0.448 1 1 S 56.711 31.864 56.158 31.864 z"
			style="stroke: none; stroke-width: 1; stroke-dasharray: none; stroke-linecap: butt; stroke-linejoin: miter; stroke-miterlimit: 10; fill: rgb(0,0,0); fill-rule: nonzero; opacity: 1;"
			transform=" matrix(1 0 0 1 0 0) " stroke-linecap="round" />
		<path
			d="M 71.149 25.61 H 64.04 c -0.553 0 -1 -0.448 -1 -1 s 0.447 -1 1 -1 h 7.109 c 0.553 0 1 0.448 1 1 S 71.702 25.61 71.149 25.61 z"
			style="stroke: none; stroke-width: 1; stroke-dasharray: none; stroke-linecap: butt; stroke-linejoin: miter; stroke-miterlimit: 10; fill: rgb(0,0,0); fill-rule: nonzero; opacity: 1;"
			transform=" matrix(1 0 0 1 0 0) " stroke-linecap="round" />
		<path
			d="M 67.595 38.118 c -0.553 0 -1 -0.448 -1 -1 V 24.61 c 0 -0.552 0.447 -1 1 -1 c 0.553 0 1 0.448 1 1 v 12.508 C 68.595 37.67 68.148 38.118 67.595 38.118 z"
			style="stroke: none; stroke-width: 1; stroke-dasharray: none; stroke-linecap: butt; stroke-linejoin: miter; stroke-miterlimit: 10; fill: rgb(0,0,0); fill-rule: nonzero; opacity: 1;"
			transform=" matrix(1 0 0 1 0 0) " stroke-linecap="round" />
		<path
			d="M 29.181 36.664 H 17.622 c -0.552 0 -1 -0.448 -1 -1 c 0 -0.552 0.448 -1 1 -1 h 11.559 c 0.552 0 1 0.448 1 1 C 30.181 36.216 29.734 36.664 29.181 36.664 z"
			style="stroke: none; stroke-width: 1; stroke-dasharray: none; stroke-linecap: butt; stroke-linejoin: miter; stroke-miterlimit: 10; fill: rgb(0,0,0); fill-rule: nonzero; opacity: 1;"
			transform=" matrix(1 0 0 1 0 0) " stroke-linecap="round" />
		<path
			d="M 70.769 73.07 H 33.759 c -3.434 0 -6.415 -2.206 -7.419 -5.49 L 13.775 26.503 c -0.996 -3.255 -3.952 -5.442 -7.356 -5.442 h -5.42 c -0.552 0 -1 -0.448 -1 -1 s 0.448 -1 1 -1 h 5.42 c 4.289 0 8.013 2.755 9.268 6.857 l 12.565 41.077 c 0.745 2.438 2.958 4.075 5.506 4.075 h 37.011 c 2.324 0 4.408 -1.385 5.309 -3.528 L 87.835 39.56 c 0.275 -0.656 0.207 -1.372 -0.187 -1.964 c -0.394 -0.592 -1.027 -0.932 -1.738 -0.932 h -7.717 c -0.553 0 -1 -0.448 -1 -1 c 0 -0.552 0.447 -1 1 -1 h 7.717 c 1.372 0 2.645 0.682 3.404 1.825 c 0.76 1.143 0.896 2.581 0.364 3.846 L 77.922 68.317 C 76.709 71.204 73.901 73.07 70.769 73.07 z"
			style="stroke: none; stroke-width: 1; stroke-dasharray: none; stroke-linecap: butt; stroke-linejoin: miter; stroke-miterlimit: 10; fill: rgb(0,0,0); fill-rule: nonzero; opacity: 1;"
			transform=" matrix(1 0 0 1 0 0) " stroke-linecap="round" />
		<path
			d="M 25.443 87.346 c -3.324 0 -6.027 -2.704 -6.027 -6.028 c 0 -3.323 2.704 -6.027 6.027 -6.027 s 6.028 2.704 6.028 6.027 C 31.471 84.642 28.767 87.346 25.443 87.346 z M 25.443 77.29 c -2.221 0 -4.027 1.807 -4.027 4.027 c 0 2.222 1.807 4.028 4.027 4.028 c 2.221 0 4.028 -1.807 4.028 -4.028 C 29.471 79.097 27.665 77.29 25.443 77.29 z"
			style="stroke: none; stroke-width: 1; stroke-dasharray: none; stroke-linecap: butt; stroke-linejoin: miter; stroke-miterlimit: 10; fill: rgb(0,0,0); fill-rule: nonzero; opacity: 1;"
			transform=" matrix(1 0 0 1 0 0) " stroke-linecap="round" />
		<path
			d="M 78.583 87.346 c -3.323 0 -6.027 -2.704 -6.027 -6.028 c 0 -3.323 2.704 -6.027 6.027 -6.027 s 6.027 2.704 6.027 6.027 C 84.61 84.642 81.906 87.346 78.583 87.346 z M 78.583 77.29 c -2.221 0 -4.027 1.807 -4.027 4.027 c 0 2.222 1.807 4.028 4.027 4.028 s 4.027 -1.807 4.027 -4.028 C 82.61 79.097 80.804 77.29 78.583 77.29 z"
			style="stroke: none; stroke-width: 1; stroke-dasharray: none; stroke-linecap: butt; stroke-linejoin: miter; stroke-miterlimit: 10; fill: rgb(0,0,0); fill-rule: nonzero; opacity: 1;"
			transform=" matrix(1 0 0 1 0 0) " stroke-linecap="round" />
	</g>
</svg>