<svg class="svg-icon" style="width: 1em;height: 1em;vertical-align: middle;fill: currentColor;overflow: hidden;"
    viewBox="0 0 1024 1024" version="1.1" xmlns="http://www.w3.org/2000/svg">
    <path d="M832 452m-160 0a160 160 0 1 0 320 0 160 160 0 1 0-320 0Z" fill="#FFD740" />
    <path
        d="M832 620c-92.64 0-168-75.36-168-168s75.36-168 168-168 168 75.36 168 168-75.36 168-168 168z m0-320c-83.808 0-152 68.192-152 152s68.192 152 152 152 152-68.192 152-152-68.192-152-152-152z"
        fill="#263238" />
    <path
        d="M832 580c-70.576 0-128-57.424-128-128s57.424-128 128-128 128 57.424 128 128-57.424 128-128 128z m0-240c-61.76 0-112 50.24-112 112s50.24 112 112 112 112-50.24 112-112-50.24-112-112-112z"
        fill="#263238" />
    <path
        d="M840 508H800a8 8 0 0 1 0-16h40c8.816 0 16-7.184 16-16s-7.184-16-16-16h-16c-17.648 0-32-14.352-32-32s14.352-32 32-32h32a8 8 0 0 1 0 16h-32c-8.816 0-16 7.184-16 16s7.184 16 16 16h16c17.648 0 32 14.352 32 32s-14.352 32-32 32z"
        fill="#263238" />
    <path
        d="M832 412a8 8 0 0 1-8-8v-24a8 8 0 0 1 16 0v24a8 8 0 0 1-8 8zM832 532a8 8 0 0 1-8-8v-24a8 8 0 0 1 16 0v24a8 8 0 0 1-8 8zM280 1004h-208c-26.464 0-48-21.536-48-48v-208c0-26.464 21.536-48 48-48h208c26.464 0 48 21.536 48 48v208c0 26.464-21.536 48-48 48z m-208-288c-17.648 0-32 14.352-32 32v208c0 17.648 14.352 32 32 32h208c17.648 0 32-14.352 32-32v-208c0-17.648-14.352-32-32-32h-208z"
        fill="#263238" />
    <path
        d="M96 804a8 8 0 0 1-8-8v-48a8 8 0 0 1 16 0v48a8 8 0 0 1-8 8zM256 804a8 8 0 0 1-8-8v-48a8 8 0 0 1 16 0v48a8 8 0 0 1-8 8zM176 884a8 8 0 0 1-8-8v-48a8 8 0 0 1 16 0v48a8 8 0 0 1-8 8zM256 884a8 8 0 0 1-8-8v-48a8 8 0 0 1 16 0v48a8 8 0 0 1-8 8zM176 804c-13.232 0-24-10.768-24-24v-16c0-13.232 10.768-24 24-24s24 10.768 24 24v16c0 13.232-10.768 24-24 24z m0-48a8 8 0 0 0-8 8v16a8 8 0 0 0 16 0v-16a8 8 0 0 0-8-8zM96 884c-13.232 0-24-10.768-24-24v-16c0-13.232 10.768-24 24-24s24 10.768 24 24v16c0 13.232-10.768 24-24 24z m0-48a8 8 0 0 0-8 8v16a8 8 0 0 0 16 0v-16a8 8 0 0 0-8-8zM96 964c-13.232 0-24-10.768-24-24v-16c0-13.232 10.768-24 24-24s24 10.768 24 24v16c0 13.232-10.768 24-24 24z m0-48a8 8 0 0 0-8 8v16a8 8 0 0 0 16 0v-16a8 8 0 0 0-8-8zM176 964c-13.232 0-24-10.768-24-24v-16c0-13.232 10.768-24 24-24s24 10.768 24 24v16c0 13.232-10.768 24-24 24z m0-48a8 8 0 0 0-8 8v16a8 8 0 0 0 16 0v-16a8 8 0 0 0-8-8zM256 964c-13.232 0-24-10.768-24-24v-16c0-13.232 10.768-24 24-24s24 10.768 24 24v16c0 13.232-10.768 24-24 24z m0-48a8 8 0 0 0-8 8v16a8 8 0 0 0 16 0v-16a8 8 0 0 0-8-8zM96 588a8 8 0 0 1-8-8v-16a8 8 0 0 1 16 0v16a8 8 0 0 1-8 8zM96 540a8 8 0 0 1-8-8v-224a8 8 0 0 1 16 0v224a8 8 0 0 1-8 8zM912 700a8 8 0 0 1-8-8v-16a8 8 0 0 1 16 0v16a8 8 0 0 1-8 8zM912 956a8 8 0 0 1-8-8v-224a8 8 0 0 1 16 0v224a8 8 0 0 1-8 8zM328 196H176a8 8 0 0 1-5.664-13.664l152-152A8 8 0 1 1 336 36v152a8 8 0 0 1-8 8z m-132.688-16H320V55.312l-124.688 124.688z"
        fill="#263238" />
    <path d="M352 340h-64a16 16 0 0 1-16-16v-64a16 16 0 0 1 16-16h64a16 16 0 0 1 16 16v64a16 16 0 0 1-16 16z"
        fill="#FF5252" />
    <path
        d="M352 348h-64c-13.232 0-24-10.768-24-24v-64c0-13.232 10.768-24 24-24h64c13.232 0 24 10.768 24 24v64c0 13.232-10.768 24-24 24z m-64-96a8 8 0 0 0-8 8v64a8 8 0 0 0 8 8h64a8 8 0 0 0 8-8v-64a8 8 0 0 0-8-8h-64zM698.672 300h-240a8 8 0 0 1 0-16h240a8 8 0 0 1 0 16z"
        fill="#263238" />
    <path d="M352 500h-64a16 16 0 0 1-16-16v-64a16 16 0 0 1 16-16h64a16 16 0 0 1 16 16v64a16 16 0 0 1-16 16z"
        fill="#FF5252" />
    <path
        d="M352 508h-64c-13.232 0-24-10.768-24-24v-64c0-13.232 10.768-24 24-24h64c13.232 0 24 10.768 24 24v64c0 13.232-10.768 24-24 24z m-64-96a8 8 0 0 0-8 8v64a8 8 0 0 0 8 8h64a8 8 0 0 0 8-8v-64a8 8 0 0 0-8-8h-64zM640 460H458.672a8 8 0 0 1 0-16H640a8 8 0 0 1 0 16z"
        fill="#263238" />
    <path d="M352 660h-64a16 16 0 0 1-16-16v-64a16 16 0 0 1 16-16h64a16 16 0 0 1 16 16v64a16 16 0 0 1-16 16z"
        fill="#FF5252" />
    <path
        d="M352 668h-64c-13.232 0-24-10.768-24-24v-64c0-13.232 10.768-24 24-24h64c13.232 0 24 10.768 24 24v64c0 13.232-10.768 24-24 24z m-64-96a8 8 0 0 0-8 8v64a8 8 0 0 0 8 8h64a8 8 0 0 0 8-8v-64a8 8 0 0 0-8-8h-64zM698.672 620h-240a8 8 0 0 1 0-16h240a8 8 0 0 1 0 16zM792 908H352a8 8 0 0 1 0-16h440c17.648 0 32-14.352 32-32v-216a8 8 0 0 1 16 0v216c0 26.464-21.536 48-48 48z"
        fill="#263238" />
    <path
        d="M176 684a8 8 0 0 1-8-8v-488c0-2.128 0.848-4.16 2.336-5.664l152-152a8.064 8.064 0 0 1 5.664-2.336h464c26.464 0 48 21.536 48 48v184a8 8 0 0 1-16 0V76c0-17.648-14.352-32-32-32H331.312L184 191.312V676a8 8 0 0 1-8 8zM208 68H144a8 8 0 0 1 0-16h64a8 8 0 0 1 0 16z"
        fill="#263238" />
    <path d="M176 100a8 8 0 0 1-8-8v-64a8 8 0 0 1 16 0v64a8 8 0 0 1-8 8z" fill="#263238" />
    <path d="M96 172H32a8 8 0 0 1 0-16h64a8 8 0 0 1 0 16z" fill="#263238" />
    <path d="M64 204a8 8 0 0 1-8-8v-64a8 8 0 0 1 16 0v64a8 8 0 0 1-8 8z" fill="#263238" />
    <path d="M784 172a8 8 0 0 1-8-8v-64a8 8 0 0 0-8-8h-64a8 8 0 0 1 0-16h64c13.232 0 24 10.768 24 24v64a8 8 0 0 1-8 8z"
        fill="#263238" />
</svg>